{
 "cells": [
  {
   "cell_type": "code",
   "execution_count": 16,
   "metadata": {},
   "outputs": [],
   "source": [
    "list_of_UI_videos=[\"final_video_atm1\", \"final_video_Robbery008\",\"final_video_Robbery024\",\"final_video_Robbery053\",\n",
    "                   \"final_video_Robbery041\", \"final_video_Robbery131\",\"final_video_Shooting054\",\n",
    "                   \"final_video_Normal_Videos_048\",\"final_video_Normal_Videos_597\"]\n",
    "\n",
    "from utils import split_video_by_seconds\n",
    "\n",
    "\n",
    "import os\n",
    "\n",
    "path=\"../finals/\"\n",
    "output_path=\"../github/\"\n",
    "for file in list_of_UI_videos:\n",
    "    # split_video_by_seconds(path+file+\".mp4\", 5, output_folder=output_path,overlap=0)\n",
    "    all_files = os.listdir(output_path)\n",
    "    list_of_chunks=[f for f in all_files if file in f and '.mp4' in f]\n",
    "    text=['file '+output_path+f for f in list_of_chunks]\n",
    "    text='\\n'.join(text)\n",
    "    with open(output_path+file+'.txt', \"w\") as file:\n",
    "        file.write(text)\n",
    "\n",
    "\n",
    "\n",
    "\n",
    "#concatenate each "
   ]
  },
  {
   "cell_type": "code",
   "execution_count": 41,
   "metadata": {},
   "outputs": [
    {
     "name": "stdout",
     "output_type": "stream",
     "text": [
      "['final_video_atm1_chuncked_5.mp4', 'final_video_atm1_chuncked_15.mp4', 'final_video_atm1_chuncked_0.mp4', 'final_video_atm1_chuncked_10.mp4', 'final_video_atm1_chuncked_35.mp4', 'final_video_atm1_chuncked_20.mp4', 'final_video_atm1_chuncked_30.mp4', 'final_video_atm1_chuncked_25.mp4']\n"
     ]
    },
    {
     "name": "stderr",
     "output_type": "stream",
     "text": [
      "ffmpeg version 7.1.1 Copyright (c) 2000-2025 the FFmpeg developers\n",
      "  built with Apple clang version 16.0.0 (clang-1600.0.26.6)\n",
      "  configuration: --prefix=/opt/homebrew/Cellar/ffmpeg/7.1.1_2 --enable-shared --enable-pthreads --enable-version3 --cc=clang --host-cflags= --host-ldflags='-Wl,-ld_classic' --enable-ffplay --enable-gnutls --enable-gpl --enable-libaom --enable-libaribb24 --enable-libbluray --enable-libdav1d --enable-libharfbuzz --enable-libjxl --enable-libmp3lame --enable-libopus --enable-librav1e --enable-librist --enable-librubberband --enable-libsnappy --enable-libsrt --enable-libssh --enable-libsvtav1 --enable-libtesseract --enable-libtheora --enable-libvidstab --enable-libvmaf --enable-libvorbis --enable-libvpx --enable-libwebp --enable-libx264 --enable-libx265 --enable-libxml2 --enable-libxvid --enable-lzma --enable-libfontconfig --enable-libfreetype --enable-frei0r --enable-libass --enable-libopencore-amrnb --enable-libopencore-amrwb --enable-libopenjpeg --enable-libspeex --enable-libsoxr --enable-libzmq --enable-libzimg --disable-libjack --disable-indev=jack --enable-videotoolbox --enable-audiotoolbox --enable-neon\n",
      "  libavutil      59. 39.100 / 59. 39.100\n",
      "  libavcodec     61. 19.101 / 61. 19.101\n",
      "  libavformat    61.  7.100 / 61.  7.100\n",
      "  libavdevice    61.  3.100 / 61.  3.100\n",
      "  libavfilter    10.  4.100 / 10.  4.100\n",
      "  libswscale      8.  3.100 /  8.  3.100\n",
      "  libswresample   5.  3.100 /  5.  3.100\n",
      "  libpostproc    58.  3.100 / 58.  3.100\n",
      "Input #0, mov,mp4,m4a,3gp,3g2,mj2, from '../github/final_video_atm1_chuncked_5.mp4':\n",
      "  Metadata:\n",
      "    major_brand     : isom\n",
      "    minor_version   : 512\n",
      "    compatible_brands: isomiso2mp41\n",
      "    encoder         : Lavf61.7.100\n",
      "  Duration: 00:00:05.01, start: 0.000000, bitrate: 10943 kb/s\n",
      "  Stream #0:0[0x1](und): Video: mpeg4 (Simple Profile) (mp4v / 0x7634706D), yuv420p, 3000x2800 [SAR 1:1 DAR 15:14], 10530 kb/s, 29.97 fps, 29.97 tbr, 11988 tbn (default)\n",
      "      Metadata:\n",
      "        handler_name    : VideoHandler\n",
      "        vendor_id       : [0][0][0][0]\n",
      "Input #1, mov,mp4,m4a,3gp,3g2,mj2, from '../github/final_video_atm1_chuncked_15.mp4':\n",
      "  Metadata:\n",
      "    major_brand     : isom\n",
      "    minor_version   : 512\n",
      "    compatible_brands: isomiso2mp41\n",
      "    encoder         : Lavf61.7.100\n",
      "  Duration: 00:00:05.02, start: 0.000000, bitrate: 10352 kb/s\n",
      "  Stream #1:0[0x1](und): Video: mpeg4 (Simple Profile) (mp4v / 0x7634706D), yuv420p, 3000x2800 [SAR 1:1 DAR 15:14], 9982 kb/s, 29.97 fps, 29.97 tbr, 11988 tbn (default)\n",
      "      Metadata:\n",
      "        handler_name    : VideoHandler\n",
      "        vendor_id       : [0][0][0][0]\n",
      "Input #2, mov,mp4,m4a,3gp,3g2,mj2, from '../github/final_video_atm1_chuncked_0.mp4':\n",
      "  Metadata:\n",
      "    major_brand     : isom\n",
      "    minor_version   : 512\n",
      "    compatible_brands: isomiso2mp41\n",
      "    encoder         : Lavf61.7.100\n",
      "  Duration: 00:00:05.01, start: 0.000000, bitrate: 11710 kb/s\n",
      "  Stream #2:0[0x1](und): Video: mpeg4 (Simple Profile) (mp4v / 0x7634706D), yuv420p, 3000x2800 [SAR 1:1 DAR 15:14], 11707 kb/s, 29.97 fps, 29.97 tbr, 11988 tbn (default)\n",
      "      Metadata:\n",
      "        handler_name    : VideoHandler\n",
      "        vendor_id       : [0][0][0][0]\n",
      "Input #3, mov,mp4,m4a,3gp,3g2,mj2, from '../github/final_video_atm1_chuncked_10.mp4':\n",
      "  Metadata:\n",
      "    major_brand     : isom\n",
      "    minor_version   : 512\n",
      "    compatible_brands: isomiso2mp41\n",
      "    encoder         : Lavf61.7.100\n",
      "  Duration: 00:00:05.02, start: 0.000000, bitrate: 11406 kb/s\n",
      "  Stream #3:0[0x1](und): Video: mpeg4 (Simple Profile) (mp4v / 0x7634706D), yuv420p, 3000x2800 [SAR 1:1 DAR 15:14], 10580 kb/s, 29.97 fps, 29.97 tbr, 11988 tbn (default)\n",
      "      Metadata:\n",
      "        handler_name    : VideoHandler\n",
      "        vendor_id       : [0][0][0][0]\n",
      "Input #4, mov,mp4,m4a,3gp,3g2,mj2, from '../github/final_video_atm1_chuncked_35.mp4':\n",
      "  Metadata:\n",
      "    major_brand     : isom\n",
      "    minor_version   : 512\n",
      "    compatible_brands: isomiso2mp41\n",
      "    encoder         : Lavf61.7.100\n",
      "  Duration: 00:00:05.01, start: 0.000000, bitrate: 10361 kb/s\n",
      "  Stream #4:0[0x1](und): Video: mpeg4 (Simple Profile) (mp4v / 0x7634706D), yuv420p, 3000x2800 [SAR 1:1 DAR 15:14], 10027 kb/s, 29.97 fps, 29.97 tbr, 11988 tbn (default)\n",
      "      Metadata:\n",
      "        handler_name    : VideoHandler\n",
      "        vendor_id       : [0][0][0][0]\n",
      "Input #5, mov,mp4,m4a,3gp,3g2,mj2, from '../github/final_video_atm1_chuncked_20.mp4':\n",
      "  Metadata:\n",
      "    major_brand     : isom\n",
      "    minor_version   : 512\n",
      "    compatible_brands: isomiso2mp41\n",
      "    encoder         : Lavf61.7.100\n",
      "  Duration: 00:00:05.03, start: 0.000000, bitrate: 10797 kb/s\n",
      "  Stream #5:0[0x1](und): Video: mpeg4 (Simple Profile) (mp4v / 0x7634706D), yuv420p, 3000x2800 [SAR 1:1 DAR 15:14], 10035 kb/s, 29.97 fps, 29.97 tbr, 11988 tbn (default)\n",
      "      Metadata:\n",
      "        handler_name    : VideoHandler\n",
      "        vendor_id       : [0][0][0][0]\n",
      "Input #6, mov,mp4,m4a,3gp,3g2,mj2, from '../github/final_video_atm1_chuncked_30.mp4':\n",
      "  Metadata:\n",
      "    major_brand     : isom\n",
      "    minor_version   : 512\n",
      "    compatible_brands: isomiso2mp41\n",
      "    encoder         : Lavf61.7.100\n",
      "  Duration: 00:00:05.00, start: 0.000000, bitrate: 10776 kb/s\n",
      "  Stream #6:0[0x1](und): Video: mpeg4 (Simple Profile) (mp4v / 0x7634706D), yuv420p, 3000x2800 [SAR 1:1 DAR 15:14], 10031 kb/s, 29.97 fps, 29.97 tbr, 11988 tbn (default)\n",
      "      Metadata:\n",
      "        handler_name    : VideoHandler\n",
      "        vendor_id       : [0][0][0][0]\n",
      "Input #7, mov,mp4,m4a,3gp,3g2,mj2, from '../github/final_video_atm1_chuncked_25.mp4':\n",
      "  Metadata:\n",
      "    major_brand     : isom\n",
      "    minor_version   : 512\n",
      "    compatible_brands: isomiso2mp41\n",
      "    encoder         : Lavf61.7.100\n",
      "  Duration: 00:00:05.03, start: 0.000000, bitrate: 12473 kb/s\n",
      "  Stream #7:0[0x1](und): Video: mpeg4 (Simple Profile) (mp4v / 0x7634706D), yuv420p, 3000x2800 [SAR 1:1 DAR 15:14], 12051 kb/s, 29.97 fps, 29.97 tbr, 11988 tbn (default)\n",
      "      Metadata:\n",
      "        handler_name    : VideoHandler\n",
      "        vendor_id       : [0][0][0][0]\n",
      "Stream mapping:\n",
      "  Stream #0:0 (mpeg4) -> concat\n",
      "  Stream #1:0 (mpeg4) -> concat\n",
      "  Stream #2:0 (mpeg4) -> concat\n",
      "  Stream #3:0 (mpeg4) -> concat\n",
      "  Stream #4:0 (mpeg4) -> concat\n",
      "  Stream #5:0 (mpeg4) -> concat\n",
      "  Stream #6:0 (mpeg4) -> concat\n",
      "  Stream #7:0 (mpeg4) -> concat\n",
      "  concat:out:v0 -> Stream #0:0 (libx264)\n",
      "Press [q] to stop, [?] for help\n",
      "[libx264 @ 0x121e0f4b0] using SAR=1/1\n",
      "[libx264 @ 0x121e0f4b0] using cpu capabilities: ARMv8 NEON\n",
      "[libx264 @ 0x121e0f4b0] profile High, level 5.2, 4:2:0, 8-bit\n",
      "[libx264 @ 0x121e0f4b0] 264 - core 164 r3108 31e19f9 - H.264/MPEG-4 AVC codec - Copyleft 2003-2023 - http://www.videolan.org/x264.html - options: cabac=1 ref=3 deblock=1:0:0 analyse=0x3:0x113 me=hex subme=7 psy=1 psy_rd=1.00:0.00 mixed_ref=1 me_range=16 chroma_me=1 trellis=1 8x8dct=1 cqm=0 deadzone=21,11 fast_pskip=1 chroma_qp_offset=-2 threads=12 lookahead_threads=2 sliced_threads=0 nr=0 decimate=1 interlaced=0 bluray_compat=0 constrained_intra=0 bframes=3 b_pyramid=2 b_adapt=1 b_bias=0 direct=1 weightb=1 open_gop=0 weightp=2 keyint=250 keyint_min=25 scenecut=40 intra_refresh=0 rc_lookahead=40 rc=crf mbtree=1 crf=23.0 qcomp=0.60 qpmin=0 qpmax=69 qpstep=4 ip_ratio=1.40 aq=1:1.00\n",
      "Output #0, mp4, to '../test/final_video_atm1.mp4':\n",
      "  Metadata:\n",
      "    major_brand     : isom\n",
      "    minor_version   : 512\n",
      "    compatible_brands: isomiso2mp41\n",
      "    encoder         : Lavf61.7.100\n",
      "  Stream #0:0: Video: h264 (avc1 / 0x31637661), yuv420p(tv, progressive), 3000x2800 [SAR 1:1 DAR 15:14], q=2-31, 29.97 fps, 11988 tbn\n",
      "      Metadata:\n",
      "        encoder         : Lavc61.19.101 libx264\n",
      "      Side data:\n",
      "        cpb: bitrate max/min/avg: 0/0/0 buffer size: 0 vbv_delay: N/A\n",
      "[out#0/mp4 @ 0x121e0dee0] video:8901KiB audio:0KiB subtitle:0KiB other streams:0KiB global headers:0KiB muxing overhead: 0.166683%\n",
      "frame= 1199 fps= 40 q=-1.0 Lsize=    8916KiB time=00:00:39.93 bitrate=1828.6kbits/s speed=1.35x    \n",
      "[libx264 @ 0x121e0f4b0] frame I:5     Avg QP:17.54  size:149028\n",
      "[libx264 @ 0x121e0f4b0] frame P:347   Avg QP:21.79  size: 18388\n",
      "[libx264 @ 0x121e0f4b0] frame B:847   Avg QP:25.99  size:  2347\n",
      "[libx264 @ 0x121e0f4b0] consecutive B-frames:  4.0%  3.8%  4.8% 87.4%\n",
      "[libx264 @ 0x121e0f4b0] mb I  I16..4: 27.1% 67.7%  5.2%\n",
      "[libx264 @ 0x121e0f4b0] mb P  I16..4:  1.0%  3.7%  0.1%  P16..4:  5.4%  1.1%  0.7%  0.0%  0.0%    skip:88.1%\n",
      "[libx264 @ 0x121e0f4b0] mb B  I16..4:  0.1%  0.2%  0.0%  B16..8:  4.1%  0.1%  0.0%  direct: 0.1%  skip:95.3%  L0:49.8% L1:49.0% BI: 1.2%\n",
      "[libx264 @ 0x121e0f4b0] 8x8 transform intra:73.7% inter:81.6%\n",
      "[libx264 @ 0x121e0f4b0] coded y,uvDC,uvAC intra: 28.6% 27.9% 6.5% inter: 0.7% 1.5% 0.2%\n",
      "[libx264 @ 0x121e0f4b0] i16 v,h,dc,p: 57% 34%  4%  4%\n",
      "[libx264 @ 0x121e0f4b0] i8 v,h,dc,ddl,ddr,vr,hd,vl,hu: 34% 17% 41%  1%  1%  2%  1%  1%  1%\n",
      "[libx264 @ 0x121e0f4b0] i4 v,h,dc,ddl,ddr,vr,hd,vl,hu: 42% 26% 13%  2%  4%  4%  4%  3%  2%\n",
      "[libx264 @ 0x121e0f4b0] i8c dc,h,v,p: 60% 19% 18%  3%\n",
      "[libx264 @ 0x121e0f4b0] Weighted P-Frames: Y:0.0% UV:0.0%\n",
      "[libx264 @ 0x121e0f4b0] ref P L0: 70.8% 10.4% 13.8%  5.0%\n",
      "[libx264 @ 0x121e0f4b0] ref B L0: 75.4% 20.0%  4.6%\n",
      "[libx264 @ 0x121e0f4b0] ref B L1: 90.6%  9.4%\n",
      "[libx264 @ 0x121e0f4b0] kb/s:1822.42\n"
     ]
    }
   ],
   "source": [
    "import os\n",
    "import ffmpeg\n",
    "import subprocess\n",
    "list_of_UI_videos=[\"final_video_atm1\", \"final_video_Robbery008\",\"final_video_Robbery024\",\"final_video_Robbery053\",\n",
    "                   \"final_video_Robbery041\", \"final_video_Robbery131\",\"final_video_Shooting054\",\n",
    "                   \"final_video_Normal_Videos_048\",\"final_video_Normal_Videos_597\"]\n",
    "output_path=\"../github/\"\n",
    "\n",
    "for file in list_of_UI_videos:\n",
    "    all_files = os.listdir(output_path)\n",
    "    list_of_chunks=[f for f in all_files if file in f and '.mp4' in f]\n",
    "    print(list_of_chunks)\n",
    "    input_streams = [ffmpeg.input(output_path+f) for f in list_of_chunks]\n",
    "    concatenated_stream = ffmpeg.concat(*input_streams, v=1, a=0)\n",
    "    ffmpeg.output(concatenated_stream, '../test/'+file+\".mp4\").run()\n",
    "\n",
    "    "
   ]
  }
 ],
 "metadata": {
  "kernelspec": {
   "display_name": "Python 3",
   "language": "python",
   "name": "python3"
  },
  "language_info": {
   "codemirror_mode": {
    "name": "ipython",
    "version": 3
   },
   "file_extension": ".py",
   "mimetype": "text/x-python",
   "name": "python",
   "nbconvert_exporter": "python",
   "pygments_lexer": "ipython3",
   "version": "3.9.6"
  }
 },
 "nbformat": 4,
 "nbformat_minor": 2
}
